<mxfile host="app.diagrams.net" agent="Mozilla/5.0 (X11; Linux x86_64; rv:135.0) Gecko/20100101 Firefox/135.0" version="26.1.1">
  <diagram name="Page-1" id="aP_1UxWLl0eb9XLUebjP">
    <mxGraphModel dx="454" dy="675" grid="1" gridSize="10" guides="1" tooltips="1" connect="1" arrows="1" fold="1" page="1" pageScale="1" pageWidth="827" pageHeight="1169" math="0" shadow="0">
      <root>
        <mxCell id="0" />
        <mxCell id="1" parent="0" />
        <mxCell id="LBAM2L7nt4ookdgH5S95-18" style="edgeStyle=orthogonalEdgeStyle;rounded=0;orthogonalLoop=1;jettySize=auto;html=1;exitX=0.75;exitY=0;exitDx=0;exitDy=0;entryX=0;entryY=0.5;entryDx=0;entryDy=0;strokeColor=#82b366;curved=0;fillColor=#d5e8d4;endArrow=none;startFill=0;" edge="1" parent="1" source="LBAM2L7nt4ookdgH5S95-1" target="LBAM2L7nt4ookdgH5S95-2">
          <mxGeometry relative="1" as="geometry">
            <mxPoint x="240.09523809523807" y="20" as="targetPoint" />
          </mxGeometry>
        </mxCell>
        <mxCell id="LBAM2L7nt4ookdgH5S95-23" style="edgeStyle=orthogonalEdgeStyle;rounded=0;orthogonalLoop=1;jettySize=auto;html=1;exitX=0.5;exitY=0;exitDx=0;exitDy=0;entryX=0;entryY=0.25;entryDx=0;entryDy=0;endArrow=none;startFill=0;" edge="1" parent="1" source="LBAM2L7nt4ookdgH5S95-1" target="LBAM2L7nt4ookdgH5S95-3">
          <mxGeometry relative="1" as="geometry">
            <Array as="points">
              <mxPoint x="200" y="10" />
              <mxPoint x="440" y="10" />
            </Array>
          </mxGeometry>
        </mxCell>
        <mxCell id="LBAM2L7nt4ookdgH5S95-1" value="&lt;div&gt;esp32&lt;/div&gt;" style="rounded=0;whiteSpace=wrap;html=1;" vertex="1" parent="1">
          <mxGeometry x="120" y="60" width="160" height="60" as="geometry" />
        </mxCell>
        <mxCell id="LBAM2L7nt4ookdgH5S95-19" style="edgeStyle=orthogonalEdgeStyle;rounded=0;orthogonalLoop=1;jettySize=auto;html=1;exitX=1;exitY=0.5;exitDx=0;exitDy=0;entryX=0;entryY=0.5;entryDx=0;entryDy=0;fillColor=#d5e8d4;strokeColor=#82b366;endArrow=none;startFill=0;" edge="1" parent="1" source="LBAM2L7nt4ookdgH5S95-2" target="LBAM2L7nt4ookdgH5S95-3">
          <mxGeometry relative="1" as="geometry" />
        </mxCell>
        <mxCell id="LBAM2L7nt4ookdgH5S95-2" value="&lt;div&gt;100Ohm&lt;/div&gt;" style="rounded=1;whiteSpace=wrap;html=1;fontSize=8;" vertex="1" parent="1">
          <mxGeometry x="310" y="20" width="30" height="10" as="geometry" />
        </mxCell>
        <mxCell id="LBAM2L7nt4ookdgH5S95-3" value="&lt;div&gt;argb leds&lt;/div&gt;" style="rounded=0;whiteSpace=wrap;html=1;" vertex="1" parent="1">
          <mxGeometry x="440" y="20" width="80" height="40" as="geometry" />
        </mxCell>
        <mxCell id="LBAM2L7nt4ookdgH5S95-7" value="" style="endArrow=none;html=1;rounded=0;exitX=1;exitY=0;exitDx=0;exitDy=0;entryX=0.5;entryY=1;entryDx=0;entryDy=0;" edge="1" parent="1" target="LBAM2L7nt4ookdgH5S95-1">
          <mxGeometry width="50" height="50" relative="1" as="geometry">
            <mxPoint x="200" y="200" as="sourcePoint" />
            <mxPoint x="200" y="130" as="targetPoint" />
          </mxGeometry>
        </mxCell>
        <mxCell id="LBAM2L7nt4ookdgH5S95-8" value="&lt;div&gt;btn&lt;/div&gt;" style="rounded=0;whiteSpace=wrap;html=1;" vertex="1" parent="1">
          <mxGeometry x="160" y="200" width="40" height="30" as="geometry" />
        </mxCell>
        <mxCell id="LBAM2L7nt4ookdgH5S95-9" value="" style="endArrow=none;html=1;rounded=0;exitX=0;exitY=0;exitDx=0;exitDy=0;entryX=0.25;entryY=1;entryDx=0;entryDy=0;fillColor=#d5e8d4;strokeColor=#82b366;" edge="1" parent="1" source="LBAM2L7nt4ookdgH5S95-8" target="LBAM2L7nt4ookdgH5S95-1">
          <mxGeometry width="50" height="50" relative="1" as="geometry">
            <mxPoint x="250" y="310" as="sourcePoint" />
            <mxPoint x="160" y="130" as="targetPoint" />
          </mxGeometry>
        </mxCell>
        <mxCell id="LBAM2L7nt4ookdgH5S95-10" value="" style="endArrow=none;html=1;rounded=0;entryX=1;entryY=1;entryDx=0;entryDy=0;" edge="1" parent="1" target="LBAM2L7nt4ookdgH5S95-1">
          <mxGeometry width="50" height="50" relative="1" as="geometry">
            <mxPoint x="280" y="240" as="sourcePoint" />
            <mxPoint x="340" y="120" as="targetPoint" />
          </mxGeometry>
        </mxCell>
        <mxCell id="LBAM2L7nt4ookdgH5S95-12" value="&lt;div&gt;gnd&lt;/div&gt;" style="text;html=1;align=center;verticalAlign=middle;whiteSpace=wrap;rounded=0;strokeWidth=1;fontSize=8;" vertex="1" parent="1">
          <mxGeometry x="200" y="170" width="20" height="10" as="geometry" />
        </mxCell>
        <mxCell id="LBAM2L7nt4ookdgH5S95-13" value="&lt;div&gt;gnd&lt;/div&gt;" style="text;html=1;align=center;verticalAlign=middle;whiteSpace=wrap;rounded=0;fontSize=8;" vertex="1" parent="1">
          <mxGeometry x="260" y="160" width="60" height="30" as="geometry" />
        </mxCell>
        <mxCell id="LBAM2L7nt4ookdgH5S95-14" value="" style="endArrow=none;html=1;rounded=0;exitX=1;exitY=0;exitDx=0;exitDy=0;fillColor=#f8cecc;strokeColor=#b85450;endFill=1;startFill=0;startArrow=none;" edge="1" parent="1" source="LBAM2L7nt4ookdgH5S95-1">
          <mxGeometry width="50" height="50" relative="1" as="geometry">
            <mxPoint x="250" y="180" as="sourcePoint" />
            <mxPoint x="320" y="240" as="targetPoint" />
            <Array as="points">
              <mxPoint x="320" y="60" />
            </Array>
          </mxGeometry>
        </mxCell>
        <mxCell id="LBAM2L7nt4ookdgH5S95-15" value="" style="endArrow=none;html=1;rounded=0;entryX=0;entryY=0.75;entryDx=0;entryDy=0;fillColor=#f8cecc;strokeColor=#b85450;endFill=1;startFill=0;" edge="1" parent="1" target="LBAM2L7nt4ookdgH5S95-3">
          <mxGeometry width="50" height="50" relative="1" as="geometry">
            <mxPoint x="320" y="60" as="sourcePoint" />
            <mxPoint x="300" y="70" as="targetPoint" />
            <Array as="points">
              <mxPoint x="320" y="50" />
            </Array>
          </mxGeometry>
        </mxCell>
        <mxCell id="LBAM2L7nt4ookdgH5S95-16" value="&lt;font style=&quot;font-size: 8px;&quot;&gt;5V&lt;/font&gt;" style="text;html=1;align=center;verticalAlign=middle;whiteSpace=wrap;rounded=0;" vertex="1" parent="1">
          <mxGeometry x="320" y="170" width="20" height="10" as="geometry" />
        </mxCell>
        <mxCell id="LBAM2L7nt4ookdgH5S95-20" value="data 3.3V" style="text;html=1;align=center;verticalAlign=middle;whiteSpace=wrap;rounded=0;fontSize=8;" vertex="1" parent="1">
          <mxGeometry x="240" y="30" width="40" height="10" as="geometry" />
        </mxCell>
        <mxCell id="LBAM2L7nt4ookdgH5S95-24" value="&lt;font style=&quot;font-size: 8px;&quot;&gt;gnd&lt;/font&gt;" style="text;html=1;align=center;verticalAlign=middle;whiteSpace=wrap;rounded=0;" vertex="1" parent="1">
          <mxGeometry x="180" y="30" width="20" height="10" as="geometry" />
        </mxCell>
      </root>
    </mxGraphModel>
  </diagram>
</mxfile>
